<?xml version="1.0" standalone="no"?>
<!DOCTYPE svg PUBLIC "-//W3C//DTD SVG 20010904//EN"
 "http://www.w3.org/TR/2001/REC-SVG-20010904/DTD/svg10.dtd">
<svg version="1.0" xmlns="http://www.w3.org/2000/svg"
 width="700.000000pt" height="700.000000pt" viewBox="0 0 700.000000 700.000000"
 preserveAspectRatio="xMidYMid meet">
<metadata>
Created by potrace 1.11, written by Peter Selinger 2001-2013
</metadata>
<g transform="translate(0.000000,700.000000) scale(0.100000,-0.100000)"
fill="#000000" stroke="none">
<path d="M3318 6990 c-630 -34 -1226 -230 -1743 -573 -808 -537 -1349 -1362
-1519 -2317 -65 -370 -65 -830 0 -1200 86 -481 264 -929 527 -1325 537 -808
1362 -1349 2317 -1519 370 -65 830 -65 1200 0 700 125 1321 442 1843 943 83
79 266 288 346 395 340 453 556 951 655 1506 54 304 64 714 26 1025 -56 454
-209 916 -430 1300 -321 557 -758 994 -1315 1315 -439 253 -986 418 -1477 445
-210 11 -288 12 -430 5z m-1098 -3103 c0 -1361 -2 -1642 -15 -1747 -71 -610
-356 -860 -982 -860 l-133 0 0 190 0 190 103 0 c381 2 525 140 566 545 7 74
11 621 11 1707 l0 1598 225 0 225 0 0 -1623z m2990 1433 l0 -190 -825 0 -825
0 0 -490 0 -490 790 0 790 0 0 -190 0 -190 -790 0 -790 0 0 -600 0 -600 845 0
845 0 0 -190 0 -190 -1070 0 -1070 0 0 1660 0 1660 1050 0 1050 0 0 -190z"/>
</g>
</svg>
